<?xml version="1.0" encoding="utf-8"?>
<!-- Generator: Adobe Illustrator 19.2.1, SVG Export Plug-In . SVG Version: 6.00 Build 0)  -->
<svg version="1.1" id="svg" xmlns="http://www.w3.org/2000/svg" xmlns:xlink="http://www.w3.org/1999/xlink" x="0px" y="0px"
	 viewBox="0 0 128 128" style="enable-background:new 0 0 128 128;" xml:space="preserve">
<style type="text/css">
	.st0{fill-rule:evenodd;clip-rule:evenodd;fill:#333333;}
</style>
<path class="st0" d="M1,1c10,0,20,0,30,0c0,5.3,0,10.7,0,16c0.7,0,1.3,0,2,0c0-5.3,0-10.7,0-16c10,0,20,0,30,0c0,15.3,0,30.7,0,46
	c-10.7,0-21.3,0-32,0c0,0.7,0,1.3,0,2c22,0,44,0,66,0c0-0.7,0-1.3,0-2c-10.7,0-21.3,0-32,0c0-15.3,0-30.7,0-46c9.7,0,19.3,0,29,0
	c0,5.3,0,10.7,0,16c0.7,0,1.3,0,2,0c0-5.3,0-10.7,0-16c10.3,0,20.7,0,31,0c0,42,0,84,0,126c-10,0-20,0-30,0c0-5.3,0-10.7,0-16
	c-0.7,0-1.3,0-2,0c0,5.3,0,10.7,0,16c-10,0-20,0-30,0c0-15.3,0-30.7,0-46c10.7,0,21.3,0,32,0c0-0.7,0-1.3,0-2c-22,0-44,0-66,0
	c0,0.7,0,1.3,0,2c10.7,0,21.3,0,32,0c0,15.3,0,30.7,0,46c-9.7,0-19.3,0-29,0c0-5.3,0-10.7,0-16c-0.7,0-1.3,0-2,0c0,5.3,0,10.7,0,16
	c-10.3,0-20.7,0-31,0C1,85,1,43,1,1z"/>
</svg>
